<svg xmlns="http://www.w3.org/2000/svg" width="761" height="592.634" viewBox="0 0 761 592.634">
  <g id="Layer_2" data-name="Layer 2" opacity="0.05">
    <g id="Layer_1" data-name="Layer 1">
      <text id="ADUDENT" transform="translate(0 543.634)" fill="#354fab" font-size="194" font-family="RobotoCondensed-Bold, Roboto" font-weight="700" letter-spacing="-0.03em"><tspan x="0" y="0">ADUDE</tspan><tspan y="0" letter-spacing="-0.01em">N</tspan><tspan y="0">T</tspan></text>
      <path id="Path_77" data-name="Path 77" d="M439.137,0V228.893H317.988V202.312h95.2V26.582H241.093V62.875a107.479,107.479,0,0,0-17.458,4.91q-4.348,1.605-8.575,3.6V0Z" transform="translate(72.642)" fill="#3259b3"/>
      <path id="Path_78" data-name="Path 78" d="M241.093,67.32V86.25H215.06V78.932a85.376,85.376,0,0,1,17.471-8.923A77.177,77.177,0,0,1,241.093,67.32Z" transform="translate(72.642 22.739)" fill="#3259b3"/>
      <path id="Path_79" data-name="Path 79" d="M347.63,171.1a113.537,113.537,0,0,1-35.611,40.8,109.939,109.939,0,0,1-55.986,19.812l-1.672-26.528A84.468,84.468,0,0,0,297.276,190a86.955,86.955,0,0,0,19.478-18.9Z" transform="translate(85.916 57.793)" fill="#4a006f"/>
      <path id="Path_80" data-name="Path 80" d="M390.154,159.95a116.274,116.274,0,0,1-3.13,26.983H359.987a88.759,88.759,0,0,0,4.147-26.983c0-48.441-38.595-87.865-86.019-87.865a83.116,83.116,0,0,0-20.789,2.6,77.165,77.165,0,0,0-8.562,2.676,85.375,85.375,0,0,0-17.471,8.936,86.957,86.957,0,0,0-18.127,16.053A88.294,88.294,0,0,0,192.832,148.5L167,145.074a115.209,115.209,0,0,1,26.488-60.2,112.815,112.815,0,0,1,37.779-28.936q4.214-1.98,8.575-3.6A107.473,107.473,0,0,1,257.327,47.5a110.914,110.914,0,0,1,20.789-1.967C339.894,45.49,390.154,96.834,390.154,159.95Z" transform="translate(56.408 15.379)" fill="#4a006f"/>
    </g>
  </g>
</svg>
