<svg id="Layer_2" data-name="Layer 2" xmlns="http://www.w3.org/2000/svg" width="57.454" height="57.683" viewBox="0 0 57.454 57.683">
  <g id="Layer_1" data-name="Layer 1">
    <path id="Path_81" data-name="Path 81" d="M106.646,0V45.607H82.493v-5.3h18.964V5.295H67.185v7.23a21.484,21.484,0,0,0-3.479.975c-.578.207-1.149.454-1.706.719V0Z" transform="translate(-49.192)" fill="#3259b3"/>
    <path id="Path_82" data-name="Path 82" d="M67.185,86.86v3.774H62V89.161a16.908,16.908,0,0,1,3.481-1.777A15.335,15.335,0,0,1,67.185,86.86Z" transform="translate(-49.192 -68.916)" fill="#3259b3"/>
    <path id="Path_83" data-name="Path 83" d="M131.292,220.77a22.618,22.618,0,0,1-7.1,8.131,21.9,21.9,0,0,1-11.155,3.946l-.331-5.284a16.814,16.814,0,0,0,8.548-3.026,17.263,17.263,0,0,0,3.89-3.766Z" transform="translate(-89.426 -175.163)" fill="#4a006f"/>
    <path id="Path_84" data-name="Path 84" d="M44.458,81.516a23.209,23.209,0,0,1-.62,5.371h-5.39a17.668,17.668,0,0,0,.826-5.371A17.349,17.349,0,0,0,22.129,64.009a16.621,16.621,0,0,0-4.142.516,15.34,15.34,0,0,0-1.7.529,16.908,16.908,0,0,0-3.475,1.772,17.254,17.254,0,0,0-3.613,3.208A17.592,17.592,0,0,0,5.142,79.23L0,78.552A22.968,22.968,0,0,1,5.278,66.57a22.49,22.49,0,0,1,7.53-5.774c.558-.264,1.128-.5,1.706-.719a21.484,21.484,0,0,1,3.479-.975,21.938,21.938,0,0,1,4.142-.393A22.594,22.594,0,0,1,44.458,81.516Z" transform="translate(0 -46.582)" fill="#4a006f"/>
  </g>
</svg>
