<svg id="Frame_127" data-name="Frame 127" xmlns="http://www.w3.org/2000/svg" width="80" height="80" viewBox="0 0 80 80">
  <rect id="Frame_127-2" data-name="Frame 127" width="80" height="80" rx="10" fill="rgba(85,117,232,0.3)"/>
  <g id="Discovery" transform="translate(24 24)">
    <rect id="Discovery-2" data-name="Discovery" width="32" height="32" fill="rgba(0,0,0,0)"/>
    <g id="Iconly_Bold_Discovery" data-name="Iconly/Bold/Discovery" transform="translate(2.667 2.667)">
      <g id="Discovery-3" data-name="Discovery">
        <path id="Vector" d="M13.333,0A13.333,13.333,0,1,1,0,13.333,13.338,13.338,0,0,1,13.333,0Zm5.133,8.947a.6.6,0,0,0-.747-.76L10.893,10.32a.89.89,0,0,0-.587.587l-2.133,6.84a.6.6,0,0,0,.747.747l6.8-2.133a.864.864,0,0,0,.587-.587Z" fill="#5575e8"/>
      </g>
    </g>
  </g>
</svg>
